# xmcd
#
# Track frame offsets:
#	150
#	27957
#	44506
#	62198
#	80035
#	96136
#	118926
#	143594
#	163849
#	183736
#	202140
#	220920
#	241730
#	258809
#	283269
#	297434
#	311058
#
# Disc length: 4440 seconds
#
# Revision: 0
# Processed by: cddbd v1.5.1PL0 Copyright (c) Steve Scherf et al.
# Submitted via: dBpowerAMP V4.0
#
DISCID=0f115611
DTITLE=Various Artist - Blues sur Seine, Festival 2003
DYEAR=2003
DGENRE=Blues
TTITLE0=Mighty Mo'Rodgers - Blues sur Seine
TTITLE1=Amar Sundy - Oualache
TTITLE2=Boubacar Traore - Duna Ma Yelema
TTITLE3=Bob Walsh - Cookie you
TTITLE4=Philippe Menard - Number 6
TTITLE5=Derrin Nauendorf - Let it go
TTITLE6=Fruteland Jackson - Blues 2.0
TTITLE7=Edigio Juke Ingala - Baby's boogie
TTITLE8=Gospel Feel - Swing low
TTITLE9=Boney field - Wake up
TTITLE10=Hasna El Bechara - Koul Chi al Ouadine 
TTITLE11=Lil'Mama Heather Hardy - Temptation
TTITLE12=Mr Boogie Woogie - Hot Enough for ya
TTITLE13=Lucky Peterson - Truly your friend
TTITLE14=Riverside Blues - Pig Meat
TTITLE15=Candye Kane - 27 times
TTITLE16=The Duo - Tarantino
EXTD=Promotional CD about "Blues sur Seine" french festival\n\n 
EXTT0=
EXTT1=
EXTT2=
EXTT3=
EXTT4=
EXTT5=
EXTT6=
EXTT7=
EXTT8=
EXTT9=
EXTT10=
EXTT11=
EXTT12=
EXTT13=
EXTT14=
EXTT15=
EXTT16=
PLAYORDER=
